<?xml version="1.0" encoding="utf-8"?>
<!-- Generator: Adobe Illustrator 24.0.1, SVG Export Plug-In . SVG Version: 6.00 Build 0)  -->
<svg version="1.1" id="Layer_1" xmlns="http://www.w3.org/2000/svg" xmlns:xlink="http://www.w3.org/1999/xlink" x="0px" y="0px"
	 viewBox="0 0 59.7 87.3" style="enable-background:new 0 0 59.7 87.3;" xml:space="preserve">
<style type="text/css">
	.st0{fill:none;stroke:#000000;stroke-miterlimit:10;}
	.st1{fill:#FFFFFF;}
	.st2{fill:#2E3192;}
	.st3{fill:#323393;}
</style>
<g>
	<g>
		<path class="st3" d="M0,0v86.8h12.2V0H0z M6.3,41.6v11.6h5.9V41.6H6.3z M56.5,12.7c-2.2-4-5.2-7.1-9.2-9.4S38.8,0,33.6,0H6.3v11.6
			H34c2.6,0,4.9,0.6,6.9,1.9c2,1.3,3.5,3,4.6,5.3c1.1,2.3,1.6,4.9,1.6,7.9c0,2.9-0.5,5.6-1.6,7.8c-1.1,2.3-2.6,4-4.6,5.3
			c0,0,0,0,0,0c3.7,1.9,6.6,5,8.3,8.9c3-2.1,5.4-4.7,7.2-8c2.2-4,3.3-8.7,3.3-13.9C59.7,21.3,58.6,16.7,56.5,12.7z"/>
	</g>
	<g>
		<path class="st3" d="M28.1,87.3c0,0-1.2-0.7-3.6-2.1c-2.4-1.4-4.2-3.4-5.6-5.9c-1.3-2.6-2-5.5-2-8.9V57.8c0-3.4,0.7-6.4,2-8.9
			c1.3-2.6,3.2-4.6,5.6-6s5.2-2.1,8.3-2.1c2.6,0,5,0.6,7.2,1.7c2.2,1.1,4,2.7,5.5,4.7c1.5,2,2.5,4.4,3,7.1H42
			c-0.4-1.4-1.1-2.7-2-3.8c-0.9-1.1-2-2-3.3-2.6c-1.3-0.6-2.5-0.9-3.9-0.9c-1.9,0-3.5,0.4-4.9,1.3c-1.4,0.9-2.5,2.2-3.3,3.8
			c-0.8,1.6-1.2,3.5-1.2,5.7v12.5c0,2.1,0.4,4,1.2,5.6c0.8,1.6,1.9,2.9,3.3,3.8c1.4,0.9,3,1.3,4.9,1.3c1.4,0,2.7-0.3,3.9-0.8
			s2.3-1.4,3.3-2.5c0.9-1.1,1.6-2.4,2-3.9h6.5c-0.5,2.7-1.5,5.1-3,7.1c-1.5,2-3.3,3.6-5.5,4.7c-2.2,1.1-4.6,1.7-7.2,1.7
			C29.7,87.3,28.1,87.3,28.1,87.3z"/>
	</g>
	<path class="st3" d="M39.9,52.8c-0.5,0-1,0-1.5,0c0.5-0.1,0.9-0.1,1.4-0.2C39.8,52.7,39.9,52.7,39.9,52.8z"/>
</g>
</svg>
