<?xml version="1.0" encoding="utf-8"?>
<!-- Generator: Adobe Illustrator 24.0.1, SVG Export Plug-In . SVG Version: 6.00 Build 0)  -->
<svg version="1.1" id="Layer_1" xmlns="http://www.w3.org/2000/svg" xmlns:xlink="http://www.w3.org/1999/xlink" x="0px" y="0px"
	 viewBox="0 0 841.9 275.2" style="enable-background:new 0 0 841.9 275.2;" xml:space="preserve">
<style type="text/css">
	.st0{fill:#323393;}
</style>
<g>
	<g>
		<g>
			<path class="st0" d="M0,0v273.7h38.4V0H0z M19.8,131v36.5h18.6V131H19.8z M178,39.9c-6.8-12.7-16.5-22.5-28.9-29.5
				C136.6,3.5,122.3,0,106,0H19.8v36.5h87.5c8.3,0,15.5,2,21.8,5.9c6.3,4,11.1,9.5,14.6,16.6c3.4,7.2,5.2,15.4,5.2,24.9
				c0,9.3-1.7,17.5-5.2,24.7c-3.4,7.2-8.3,12.7-14.6,16.6c0,0-0.1,0-0.1,0c11.5,6.1,20.9,15.9,26.3,28c9.4-6.5,17-15,22.6-25.4
				c6.8-12.6,10.2-27.3,10.2-44C188.2,67.3,184.8,52.6,178,39.9z"/>
		</g>
		<g>
			<path class="st0" d="M88.7,275.2c0,0-3.8-2.2-11.3-6.6c-7.5-4.4-13.4-10.7-17.5-18.7c-4.1-8.1-6.2-17.5-6.2-28.1v-39.4
				c0-10.7,2.1-20,6.2-28.1c4.1-8.1,10-14.4,17.5-18.8s16.3-6.7,26.2-6.7c8.2,0,15.8,1.8,22.7,5.3c6.9,3.5,12.7,8.5,17.3,14.9
				c4.6,6.4,7.8,13.9,9.4,22.4h-20.6c-1.3-4.5-3.3-8.5-6.3-12c-2.9-3.5-6.4-6.2-10.3-8.1c-3.9-1.9-8-2.9-12.2-2.9
				c-5.9,0-11,1.4-15.4,4.2c-4.4,2.8-7.8,6.8-10.3,11.9c-2.4,5.1-3.7,11-3.7,17.8v39.4c0,6.7,1.2,12.6,3.7,17.8
				c2.4,5.1,5.9,9.1,10.3,11.9c4.4,2.8,9.5,4.2,15.4,4.2c4.3,0,8.4-0.9,12.3-2.7c3.9-1.8,7.3-4.4,10.3-7.9c2.9-3.5,5-7.6,6.3-12.4
				H153c-1.6,8.5-4.8,16-9.5,22.4c-4.7,6.4-10.5,11.4-17.4,14.9c-6.9,3.5-14.4,5.3-22.6,5.3C93.7,275.2,88.7,275.2,88.7,275.2z"/>
		</g>
		<path class="st0" d="M125.8,166.5c-1.6,0-3.1,0-4.7-0.1c1.4-0.2,2.9-0.5,4.3-0.7C125.5,166,125.7,166.3,125.8,166.5z"/>
	</g>
	<g>
		<g>
			<path class="st0" d="M221,31.8h18.1v96H221V31.8z M229.3,73.1H260c2.2,0,4.1-0.5,5.7-1.5c1.6-1,2.9-2.4,3.9-4.2
				c0.9-1.8,1.4-3.9,1.4-6.2c0-2.4-0.5-4.5-1.4-6.3c-0.9-1.8-2.2-3.2-3.8-4.2c-1.6-1-3.6-1.5-5.8-1.5h-30.7V31.8h30.2
				c6,0,11.3,1.2,15.8,3.7s8.1,5.9,10.6,10.3c2.5,4.4,3.8,9.6,3.8,15.4c0,5.9-1.3,11-3.8,15.4c-2.5,4.4-6,7.8-10.6,10.3
				c-4.6,2.4-9.8,3.6-15.8,3.6h-30.2V73.1z"/>
			<path class="st0" d="M305.2,31.8h18.1v96h-18.1V31.8z M313.6,71.5h55.9v17.4h-55.9V71.5z M357.7,31.8h18.1v96h-18.1V31.8z"/>
			<path class="st0" d="M424.4,31.8h11.5l36.7,96h-19.5l-23-65.5l-23,65.5h-19.5L424.4,31.8z M405.3,94.9h50.5v17.4h-50.5V94.9z"/>
			<path class="st0" d="M484.4,31.7h18.1v96h-18.1V31.7z M491.6,71.7H525c1.8,0,3.5-0.5,4.9-1.4c1.4-0.9,2.5-2.2,3.3-4
				c0.8-1.7,1.2-3.7,1.2-5.9c0-2.2-0.4-4.2-1.2-5.9s-1.9-3-3.3-4c-1.4-0.9-3.1-1.4-4.9-1.4h-33.4V31.7h34.8c5.3,0,9.9,1.2,13.9,3.6
				c4,2.4,7.1,5.7,9.3,10.1c2.2,4.3,3.3,9.4,3.3,15.1c0,5.7-1.1,10.7-3.3,15.1c-2.2,4.3-5.3,7.7-9.3,10.1s-8.7,3.6-13.9,3.6h-34.8
				V71.7z M511.8,86.2l19.3-3l25.9,44.6h-21.9L511.8,86.2z"/>
			<path class="st0" d="M572.5,31.7h18.1v96h-18.1V31.7z M579.7,71.7h33.4c1.8,0,3.5-0.5,4.9-1.4c1.4-0.9,2.5-2.2,3.3-4
				c0.8-1.7,1.2-3.7,1.2-5.9c0-2.2-0.4-4.2-1.2-5.9s-1.9-3-3.3-4c-1.4-0.9-3.1-1.4-4.9-1.4h-33.4V31.7h34.8c5.3,0,9.9,1.2,13.9,3.6
				c4,2.4,7.1,5.7,9.3,10.1c2.2,4.3,3.3,9.4,3.3,15.1c0,5.7-1.1,10.7-3.3,15.1c-2.2,4.3-5.3,7.7-9.3,10.1s-8.7,3.6-13.9,3.6h-34.8
				V71.7z M599.9,86.2l19.3-3l25.9,44.6h-21.9L599.9,86.2z"/>
			<path class="st0" d="M675.3,124.5c-5.2-2.8-9.2-6.9-11.9-12.2c-2.7-5.3-4.1-11.8-4.1-19.3V31.8h18.1v61.7c0,5.5,1.5,9.8,4.4,12.8
				c2.9,3,7.1,4.6,12.5,4.6c5.4,0,9.6-1.5,12.6-4.6c3-3,4.5-7.3,4.5-12.8V31.8h18.1V93c0,7.5-1.4,14-4.1,19.3
				c-2.8,5.3-6.8,9.4-12,12.2c-5.3,2.8-11.6,4.2-19,4.2S680.6,127.3,675.3,124.5z"/>
			<path class="st0" d="M763.9,124.3c-5.3-2.9-9.4-7.1-12.3-12.4c-2.9-5.3-4.4-11.5-4.4-18.6V66.2c0-7,1.5-13.2,4.4-18.6
				c2.9-5.3,7-9.5,12.3-12.4c5.3-2.9,11.4-4.4,18.4-4.4c7,0,13.1,1.5,18.4,4.4c5.3,2.9,9.4,7.1,12.3,12.4c2.9,5.3,4.4,11.5,4.4,18.6
				v27.2c0,7-1.5,13.2-4.4,18.6c-2.9,5.3-7,9.5-12.3,12.4c-5.3,2.9-11.4,4.4-18.4,4.4C775.3,128.7,769.2,127.3,763.9,124.3z
				 M790.8,108.6c2.5-1.4,4.4-3.4,5.7-5.9c1.3-2.6,2-5.5,2-8.8V65.7c0-3.3-0.7-6.3-2-8.8c-1.3-2.6-3.2-4.5-5.7-5.9
				c-2.5-1.4-5.3-2.1-8.6-2.1c-3.3,0-6.1,0.7-8.6,2.1c-2.5,1.4-4.4,3.4-5.7,5.9c-1.3,2.6-2,5.5-2,8.8v28.1c0,3.3,0.7,6.3,2,8.8
				c1.3,2.6,3.2,4.5,5.7,5.9c2.5,1.4,5.3,2.1,8.6,2.1C785.5,110.7,788.4,110,790.8,108.6z M779.4,101.2l9.6-12.2l37.1,28.1
				l-9.6,12.3L779.4,101.2z"/>
		</g>
	</g>
	<g>
		<g>
			<path class="st0" d="M232.1,227.5c-4.2-2.5-7.5-6-9.8-10.5s-3.5-9.8-3.5-15.8V179c0-6,1.2-11.2,3.5-15.8
				c2.3-4.5,5.6-8.1,9.8-10.6c4.2-2.5,9.1-3.7,14.7-3.7c4.6,0,8.9,0.9,12.7,2.8c3.9,1.9,7.1,4.6,9.7,8c2.6,3.5,4.4,7.5,5.3,12h-8
				c-0.9-3-2.3-5.7-4.3-8c-2-2.3-4.4-4.1-7.1-5.4c-2.7-1.3-5.5-1.9-8.4-1.9c-4,0-7.5,0.9-10.5,2.8c-3,1.9-5.4,4.5-7,8
				c-1.7,3.4-2.5,7.4-2.5,11.9v22.1c0,4.5,0.8,8.5,2.5,11.9c1.7,3.4,4,6.1,7,7.9c3,1.9,6.5,2.8,10.5,2.8c2.9,0,5.7-0.6,8.4-1.8
				c2.7-1.2,5.1-3,7.1-5.3c2-2.3,3.5-5.1,4.3-8.3h8c-0.9,4.5-2.7,8.5-5.3,12c-2.6,3.5-5.9,6.1-9.8,8c-3.9,1.9-8.1,2.8-12.7,2.8
				C241.2,231.2,236.3,229.9,232.1,227.5z"/>
			<path class="st0" d="M322.4,227.7c-4.2-2.3-7.5-5.7-9.7-10.1c-2.2-4.4-3.3-9.8-3.3-16.1v-22.8c0-6.3,1.1-11.6,3.3-16.1
				c2.2-4.4,5.4-7.8,9.7-10.1c4.2-2.3,9.3-3.5,15.3-3.5c6,0,11.1,1.2,15.3,3.5c4.2,2.3,7.5,5.7,9.7,10.1s3.3,9.8,3.3,16.1v22.8
				c0,6.3-1.1,11.6-3.3,16.1s-5.4,7.8-9.7,10.1c-4.2,2.3-9.3,3.5-15.3,3.5C331.7,231.2,326.6,230,322.4,227.7z M348.7,221.2
				c3-1.7,5.4-4.2,7-7.5c1.6-3.3,2.4-7.2,2.4-11.8v-23.6c0-4.6-0.8-8.6-2.4-11.8c-1.6-3.3-3.9-5.8-7-7.5c-3-1.7-6.7-2.6-11-2.6
				c-4.3,0-8,0.9-11,2.6c-3,1.7-5.4,4.2-7,7.5c-1.6,3.3-2.4,7.2-2.4,11.8v23.6c0,4.6,0.8,8.6,2.4,11.8c1.6,3.3,3.9,5.8,7,7.5
				c3,1.7,6.7,2.6,11,2.6C342,223.7,345.7,222.9,348.7,221.2z"/>
			<path class="st0" d="M404.8,149.8h8l46.8,72.6l-3.3-2.2v-70.4h8v80.5h-8.1l-47.7-73.1l4.3,3.2v70h-8V149.8z"/>
			<path class="st0" d="M516.3,227.5c-4.2-2.5-7.5-6-9.8-10.5c-2.3-4.5-3.5-9.8-3.5-15.8V179c0-6,1.2-11.2,3.5-15.8
				c2.3-4.5,5.6-8.1,9.8-10.6c4.2-2.5,9.1-3.7,14.7-3.7c4.6,0,8.9,0.9,12.7,2.8c3.9,1.9,7.1,4.6,9.7,8c2.6,3.5,4.4,7.5,5.3,12h-8
				c-0.9-3-2.3-5.7-4.3-8c-2-2.3-4.4-4.1-7.1-5.4c-2.7-1.3-5.5-1.9-8.4-1.9c-4,0-7.5,0.9-10.5,2.8c-3,1.9-5.4,4.5-7,8
				c-1.7,3.4-2.5,7.4-2.5,11.9v22.1c0,4.5,0.8,8.5,2.5,11.9c1.7,3.4,4,6.1,7,7.9s6.5,2.8,10.5,2.8c2.9,0,5.7-0.6,8.4-1.8
				c2.7-1.2,5.1-3,7.1-5.3c2-2.3,3.5-5.1,4.3-8.3h8c-0.9,4.5-2.7,8.5-5.3,12s-5.9,6.1-9.8,8c-3.9,1.9-8.1,2.8-12.7,2.8
				C525.4,231.2,520.5,229.9,516.3,227.5z"/>
			<path class="st0" d="M595.3,149.8h8v80.6h-8V149.8z M600.8,149.8H647v7.4h-46.3V149.8z M600.8,186.6h40.2v7.4h-40.2V186.6z
				 M600.8,222.9H647v7.4h-46.3V222.9z"/>
			<path class="st0" d="M683.5,149.8h8v80.6h-8V149.8z M689.3,191.7h25.8c3.1,0,5.9-0.7,8.3-2.2s4.3-3.5,5.6-6c1.3-2.6,2-5.6,2-9
				c0-3.4-0.7-6.5-2-9.1c-1.3-2.6-3.2-4.6-5.6-6.1c-2.4-1.4-5.2-2.2-8.3-2.2h-25.8v-7.4h25.4c4.8,0,9,1,12.7,3.1
				c3.7,2.1,6.5,4.9,8.5,8.7c2,3.7,3,8.1,3,13c0,4.9-1,9.2-3,12.9c-2,3.7-4.8,6.6-8.5,8.6c-3.7,2-7.9,3.1-12.7,3.1h-25.4V191.7z"/>
			<path class="st0" d="M763.5,149.8h56.9v7.4h-56.9V149.8z M787.9,153h8v77.3h-8V153z"/>
		</g>
	</g>
</g>
</svg>
